<?xml version="1.0" encoding="UTF-8"?>
<svg fill="none" height="56" viewBox="0 0 56 56" width="56" xmlns="http://www.w3.org/2000/svg">
<ellipse cx="26.1017" cy="29.6471" fill="#FFF2EA" rx="25.6271" ry="25.4118"></ellipse>
<path clip-rule="evenodd" d="M24.2338 50.9981C24.3256 51.0157 24.413 51.051 24.4911 51.102C24.5691 51.1531 24.6362 51.2189 24.6886 51.2956C24.741 51.3724 24.7777 51.4587 24.7964 51.5495C24.8152 51.6403 24.8158 51.7339 24.7981 51.8249C24.7804 51.916 24.7448 52.0026 24.6933 52.08C24.6418 52.1574 24.5755 52.224 24.498 52.2759C24.4206 52.3279 24.3336 52.3642 24.242 52.3828C24.1504 52.4015 24.056 52.402 23.9642 52.3845C12.3447 50.1642 3.54038 40.4574 2.70513 28.6009C1.69143 14.2353 12.6342 1.77411 27.1453 0.768929C41.6555 -0.237189 54.2413 10.5925 55.2545 24.9572C55.6354 30.2446 54.3728 35.5208 51.6368 40.0748C51.5401 40.2357 51.383 40.3519 51.1999 40.3979C51.0168 40.4439 50.8228 40.4158 50.6606 40.32C50.4983 40.2241 50.3811 40.0683 50.3348 39.8868C50.2884 39.7052 50.3167 39.5129 50.4133 39.352C53.0006 35.0456 54.1944 30.0563 53.8341 25.0565C52.8754 11.4692 40.9712 1.22587 27.2445 2.17693C13.5174 3.12846 3.16641 14.9153 4.12411 28.5026C4.91523 39.7167 13.2431 48.8979 24.2333 50.9981H24.2338Z" fill="#FF6000" fill-rule="evenodd"></path>
<path d="M18.7599 26.5137C18.7053 26.5141 18.6512 26.5029 18.6014 26.4808L16.6668 25.6408C16.5978 25.611 16.5391 25.5619 16.498 25.4997C16.4569 25.4375 16.4351 25.3647 16.4352 25.2904V21.943C16.4361 21.8807 16.4525 21.8196 16.4829 21.7651C16.5133 21.7105 16.5568 21.6642 16.6097 21.6301C16.6726 21.5888 16.7466 21.567 16.8222 21.5675C16.8767 21.5663 16.9308 21.577 16.9807 21.5988L18.9153 22.4185C18.985 22.4481 19.0444 22.4972 19.0861 22.5598C19.1278 22.6223 19.15 22.6956 19.15 22.7704V26.1304C19.1487 26.1928 19.132 26.2538 19.1013 26.3084C19.0706 26.3629 19.0269 26.4092 18.974 26.4433C18.9111 26.4846 18.8371 26.5063 18.7615 26.5058" fill="#FF5100"></path>
<path d="M16.8254 21.943L18.76 22.7642V26.1304L16.8254 25.2904V21.943ZM16.8254 21.178C16.6198 21.1785 16.4228 21.2592 16.2775 21.4025C16.1322 21.5459 16.0503 21.7402 16.0499 21.943V25.2904C16.05 25.4389 16.0938 25.5842 16.176 25.7086C16.2582 25.833 16.3753 25.9312 16.513 25.9912L18.4476 26.8312C18.5656 26.8829 18.6949 26.9046 18.8237 26.8944C18.9524 26.8842 19.0765 26.8423 19.1847 26.7726C19.2928 26.703 19.3816 26.6077 19.4428 26.4955C19.5041 26.3834 19.5359 26.2578 19.5354 26.1304V22.7642C19.535 22.6139 19.4896 22.4671 19.405 22.3422C19.3204 22.2173 19.2002 22.1197 19.0597 22.0618L17.1266 21.2406C17.0296 21.1991 16.9248 21.1778 16.819 21.178" fill="white"></path>
<path d="M16.3385 20.9919C16.284 20.9925 16.23 20.9819 16.1799 20.9606L12.3202 19.3244C12.2505 19.2948 12.1911 19.2457 12.1494 19.1831C12.1077 19.1206 12.0854 19.0473 12.0854 18.9725C12.0854 18.8976 12.1077 18.8244 12.1494 18.7618C12.1911 18.6993 12.2505 18.6501 12.3202 18.6205L26.4032 12.6498C26.4532 12.6286 26.5072 12.6179 26.5617 12.6185C26.6162 12.6181 26.6702 12.6288 26.7203 12.6498L30.58 14.2844C30.6498 14.3138 30.7093 14.3627 30.7512 14.4251C30.793 14.4876 30.8154 14.5608 30.8154 14.6356C30.8154 14.7105 30.793 14.7837 30.7512 14.8461C30.7093 14.9085 30.6498 14.9575 30.58 14.9868L16.4971 20.9606C16.4469 20.9816 16.393 20.9923 16.3385 20.9919Z" fill="#FF6000"></path>
<path d="M26.5602 13.0018L30.4199 14.6364L16.3369 20.6087L12.4772 18.9725L26.5602 13.0018ZM26.5602 12.2353C26.4549 12.2352 26.3507 12.2565 26.2541 12.2979L12.1712 18.2686C12.0312 18.3273 11.9118 18.4253 11.8279 18.5505C11.744 18.6757 11.6992 18.8224 11.6992 18.9725C11.6992 19.1225 11.744 19.2693 11.8279 19.3944C11.9118 19.5196 12.0312 19.6177 12.1712 19.6764L16.0309 21.3141C16.1278 21.3554 16.2322 21.3767 16.3377 21.3767C16.4433 21.3767 16.5477 21.3554 16.6445 21.3141L30.7275 15.3403C30.8675 15.2816 30.9869 15.1835 31.0708 15.0584C31.1547 14.9332 31.1995 14.7865 31.1995 14.6364C31.1995 14.4863 31.1547 14.3396 31.0708 14.2144C30.9869 14.0893 30.8675 13.9912 30.7275 13.9325L26.8678 12.2979C26.7713 12.2562 26.6671 12.2349 26.5618 12.2353" fill="white"></path>
<path d="M19.3593 22.273C19.3049 22.2734 19.2509 22.2627 19.2008 22.2417L17.5215 21.5237C17.4517 21.4944 17.3921 21.4455 17.3503 21.3831C17.3084 21.3206 17.2861 21.2474 17.2861 21.1726C17.2861 21.0977 17.3084 21.0245 17.3503 20.9621C17.3921 20.8996 17.4517 20.8507 17.5215 20.8214L31.6044 14.8491C31.653 14.8285 31.7053 14.8178 31.7582 14.8178C31.8111 14.8178 31.8635 14.8285 31.9121 14.8491L33.6025 15.5671C33.6723 15.5964 33.7318 15.6454 33.7737 15.7078C33.8155 15.7702 33.8378 15.8434 33.8378 15.9183C33.8378 15.9931 33.8155 16.0663 33.7737 16.1288C33.7318 16.1912 33.6723 16.2401 33.6025 16.2695L19.5195 22.2417C19.4694 22.2627 19.4154 22.2734 19.3609 22.273" fill="#FF6000"></path>
<path d="M31.7519 15.2011L33.4423 15.9175L19.3593 21.8898L17.669 21.1718L31.7519 15.2011ZM31.7519 14.4362C31.6466 14.4358 31.5423 14.4571 31.4459 14.4988L17.3629 20.4695C17.2229 20.5282 17.1035 20.6262 17.0196 20.7514C16.9357 20.8766 16.8909 21.0233 16.8909 21.1734C16.8909 21.3234 16.9357 21.4702 17.0196 21.5953C17.1035 21.7205 17.2229 21.8186 17.3629 21.8773L19.0533 22.5937C19.1499 22.6349 19.2541 22.6562 19.3593 22.6562C19.4646 22.6562 19.5688 22.6349 19.6654 22.5937L33.7483 16.623C33.8883 16.5643 34.0077 16.4662 34.0916 16.3411C34.1756 16.2159 34.2203 16.0692 34.2203 15.9191C34.2203 15.769 34.1756 15.6223 34.0916 15.4971C34.0077 15.372 33.8883 15.2739 33.7483 15.2152L32.0579 14.4988C31.9615 14.4571 31.8572 14.4358 31.7519 14.4362Z" fill="white"></path>
<path d="M26.5602 25.3264C26.5057 25.327 26.4517 25.3164 26.4016 25.2951L20.5344 22.8049C20.4647 22.7752 20.4053 22.7261 20.3636 22.6636C20.3219 22.601 20.2996 22.5278 20.2996 22.4529C20.2996 22.378 20.3219 22.3048 20.3636 22.2423C20.4053 22.1797 20.4647 22.1306 20.5344 22.101L34.6189 16.1303C34.6675 16.1096 34.7198 16.0989 34.7727 16.0989C34.8256 16.0989 34.878 16.1096 34.9265 16.1303L40.7938 18.6205C40.8635 18.6502 40.9229 18.6993 40.9646 18.7618C41.0063 18.8244 41.0285 18.8976 41.0285 18.9725C41.0285 19.0474 41.0063 19.1206 40.9646 19.1831C40.9229 19.2457 40.8635 19.2948 40.7938 19.3244L26.7188 25.2951C26.6686 25.3162 26.6147 25.3268 26.5602 25.3264Z" fill="#FF6000"></path>
<path d="M34.7744 16.4822L39.8582 18.6377C39.9241 18.6661 39.9801 18.7128 40.0194 18.7722C40.0588 18.8315 40.0798 18.9008 40.0798 18.9717C40.0798 19.0426 40.0588 19.1119 40.0194 19.1713C39.9801 19.2306 39.9241 19.2773 39.8582 19.3057L26.5602 24.9416L20.693 22.4514L34.7775 16.4806L34.7744 16.4822ZM34.7775 15.7142C34.6723 15.7145 34.5682 15.7358 34.4715 15.7767L20.3869 21.749C20.247 21.8077 20.1276 21.9058 20.0436 22.0309C19.9597 22.1561 19.915 22.3029 19.915 22.4529C19.915 22.603 19.9597 22.7497 20.0436 22.8749C20.1276 23 20.247 23.0981 20.3869 23.1568L26.2542 25.6471C26.3511 25.6884 26.4555 25.7097 26.561 25.7097C26.6666 25.7097 26.771 25.6884 26.8679 25.6471L40.9508 19.6748C41.0908 19.6161 41.2102 19.5181 41.2941 19.3929C41.378 19.2677 41.4228 19.121 41.4228 18.9709C41.4228 18.8209 41.378 18.6741 41.2941 18.5489C41.2102 18.4238 41.0908 18.3257 40.9508 18.267L35.0836 15.7767C34.9869 15.7358 34.8828 15.7145 34.7775 15.7142Z" fill="white"></path>
<path d="M27.0882 43.8517C27.0373 43.8519 26.9868 43.8422 26.9397 43.8231C26.8925 43.804 26.8497 43.7759 26.8136 43.7405C26.7775 43.705 26.7489 43.6629 26.7293 43.6165C26.7098 43.57 26.6997 43.5203 26.6997 43.47V25.8489C26.6994 25.7741 26.7215 25.701 26.7633 25.6386C26.805 25.5763 26.8646 25.5275 26.9344 25.4985L41.2869 19.412C41.3371 19.391 41.391 19.3804 41.4455 19.3807C41.5484 19.3812 41.647 19.4217 41.7197 19.4934C41.7925 19.5652 41.8336 19.6625 41.834 19.764V37.3836C41.8342 37.4585 41.8121 37.5318 41.7703 37.5944C41.7286 37.657 41.6691 37.7061 41.5993 37.7355L27.2452 43.822C27.195 43.8427 27.141 43.8529 27.0866 43.8517" fill="#FF6000"></path>
<path d="M41.4407 20.0471V37.3836L27.0882 43.47V25.8489L41.1664 19.8797L41.4407 20.0471ZM41.4407 18.9991C41.3356 18.9992 41.2316 19.0199 41.1347 19.0601L26.7822 25.1465C26.6416 25.2044 26.5215 25.3019 26.4369 25.4269C26.3522 25.5518 26.3069 25.6986 26.3065 25.8489V43.47C26.3061 43.5968 26.3378 43.7216 26.3986 43.8332C26.4594 43.9449 26.5475 44.0398 26.6548 44.1095C26.7621 44.1792 26.8853 44.2214 27.0133 44.2324C27.1413 44.2434 27.27 44.2228 27.3879 44.1724L41.7404 38.0875C41.8811 38.0293 42.0013 37.9315 42.0859 37.8063C42.1706 37.6811 42.2159 37.534 42.2162 37.3836V19.764C42.2164 19.6635 42.1965 19.5639 42.1576 19.471C42.1187 19.3781 42.0616 19.2937 41.9895 19.2226C41.9175 19.1516 41.8319 19.0952 41.7377 19.0569C41.6436 19.0185 41.5426 18.9988 41.4407 18.9991Z" fill="white"></path>
<path d="M26.0369 43.8517C25.9825 43.8526 25.9285 43.8425 25.8783 43.822L11.5274 37.7355C11.4575 37.7061 11.3981 37.657 11.3563 37.5944C11.3146 37.5318 11.2925 37.4585 11.2927 37.3836V19.764C11.2931 19.6625 11.3342 19.5652 11.4069 19.4934C11.4797 19.4217 11.5783 19.3812 11.6812 19.3807C11.7357 19.3803 11.7896 19.391 11.8398 19.412L15.9357 21.1452C16.0054 21.1748 16.0648 21.224 16.1065 21.2865C16.1482 21.3491 16.1704 21.4223 16.1704 21.4972V25.6299C16.1705 25.6564 16.1783 25.6822 16.193 25.7044C16.2076 25.7266 16.2284 25.7442 16.2529 25.755L19.2388 27.0502C19.2562 27.058 19.2752 27.0618 19.2943 27.0612C19.3219 27.0607 19.3489 27.0525 19.372 27.0377C19.3903 27.0254 19.4052 27.0088 19.4154 26.9894C19.4257 26.97 19.4309 26.9485 19.4307 26.9266V23.21C19.4319 23.1476 19.4485 23.0865 19.4792 23.032C19.5099 22.9774 19.5537 22.9311 19.6067 22.8972C19.6695 22.8554 19.7435 22.8331 19.8192 22.833C19.8737 22.8326 19.9276 22.8433 19.9778 22.8643L26.2018 25.5047C26.2716 25.5338 26.3311 25.5825 26.3729 25.6449C26.4147 25.7073 26.4368 25.7804 26.4365 25.8551V43.47C26.4356 43.5323 26.4192 43.5934 26.3888 43.6479C26.3584 43.7025 26.3149 43.7488 26.262 43.7829C26.1991 43.8242 26.1251 43.846 26.0496 43.8455" fill="#FF6000"></path>
<path d="M11.686 19.764L15.7772 21.5003V25.6299C15.7788 25.7299 15.8095 25.8273 15.8658 25.9105C15.922 25.9937 16.0014 26.0592 16.0943 26.0991L19.0803 27.3943C19.1472 27.4235 19.2196 27.4384 19.2928 27.4381C19.3946 27.4374 19.4941 27.4081 19.5798 27.3537C19.6528 27.3066 19.7128 27.2424 19.7543 27.1667C19.7958 27.0911 19.8176 27.0064 19.8176 26.9204V23.21L26.0432 25.8489V43.47L11.6923 37.3836V19.764H11.686ZM11.6923 18.9991C11.5903 18.9986 11.4892 19.0181 11.3948 19.0564C11.3005 19.0947 11.2147 19.151 11.1425 19.2221C11.0703 19.2932 11.013 19.3776 10.974 19.4706C10.935 19.5636 10.9151 19.6633 10.9153 19.764V37.3836C10.9158 37.534 10.9612 37.681 11.0458 37.8061C11.1304 37.9313 11.2504 38.0291 11.391 38.0875L25.7435 44.1724C25.8614 44.2226 25.9902 44.2431 26.1181 44.2319C26.246 44.2207 26.3691 44.1782 26.4761 44.1082C26.5833 44.0386 26.6712 43.9439 26.7321 43.8325C26.793 43.7211 26.8249 43.5966 26.825 43.47V25.8489C26.8246 25.6986 26.7792 25.5518 26.6946 25.4269C26.61 25.3019 26.4899 25.2044 26.3493 25.1465L20.1237 22.5077C20.0058 22.4574 19.8771 22.437 19.7491 22.4482C19.6212 22.4594 19.4982 22.5018 19.3911 22.5718C19.2839 22.6414 19.196 22.7361 19.1351 22.8475C19.0742 22.9589 19.0423 23.0834 19.0422 23.21V26.5481L16.5574 25.4703V21.5003C16.5565 21.3501 16.511 21.2035 16.4264 21.0786C16.3419 20.9538 16.222 20.8562 16.0816 20.7979L11.992 19.0632C11.8951 19.023 11.7911 19.0023 11.686 19.0022" fill="white"></path>
<path d="M41.4218 26.2806C43.8004 26.2806 43.8004 22.6359 41.4218 22.6359C39.0432 22.6359 39.0432 26.2806 41.4218 26.2806Z" fill="#FF6000"></path>
<path d="M39.6663 18.9568C40.3434 19.8313 41.5565 21.0983 41.7864 23.673C41.8848 24.6806 41.7836 25.6975 41.4883 26.667C41.0015 28.2156 40.2197 28.8929 39.2682 30.0004C36.5091 33.2337 30.2724 34.0111 25.6103 31.1564L28.5994 28.5613L14.3055 27.2786L16.5462 39.0198L20.7024 35.422C28.869 40.207 39.2159 38.1673 43.2088 32.5673C44.1438 31.2849 44.7029 29.7734 44.8247 28.1984C45.0594 24.8869 43.2072 21.4205 39.6663 18.9694" fill="white"></path>
<path d="M39.8629 18.8098C40.5274 19.6654 41.8007 21.0091 42.0307 23.6589C42.0544 23.9186 42.0655 24.1782 42.0655 24.441C42.0695 25.2221 41.9545 25.9993 41.7246 26.7467C41.2203 28.3548 40.3831 29.0774 39.457 30.1646C37.7983 32.1043 34.9725 33.1679 31.9707 33.1695C29.6801 33.1743 27.4332 32.5515 25.4803 31.3706C25.4476 31.3507 25.4201 31.3235 25.4 31.2911C25.3799 31.2588 25.3677 31.2223 25.3645 31.1845C25.3614 31.1466 25.3672 31.1085 25.3815 31.0732C25.3958 31.0379 25.4182 31.0064 25.447 30.9811L28.0064 28.7599L14.6085 27.5586L16.708 38.5661L20.5344 35.2327L20.823 35.2061C23.7968 36.9403 27.1888 37.8534 30.6435 37.8497C35.8447 37.8497 40.6162 35.7724 43.0027 32.4202C43.9119 31.1738 44.4556 29.7044 44.5742 28.1733C44.5868 27.9919 44.5932 27.8104 44.5932 27.6274C44.5932 24.5865 42.8076 21.4377 39.5188 19.1555L39.8027 18.7581C43.193 21.1045 45.0832 24.3894 45.0848 27.6274C45.0848 27.8214 45.0848 28.0138 45.0642 28.2077C44.9395 29.8267 44.3651 31.3806 43.4039 32.6987C40.8873 36.2213 35.9715 38.3299 30.6419 38.3299C27.0989 38.3339 23.6202 37.397 20.5708 35.6175L20.6961 35.4079L20.8547 35.5909L16.6969 39.1981C16.6643 39.2265 16.6246 39.2458 16.5819 39.2542C16.5393 39.2625 16.4951 39.2595 16.454 39.2455C16.4129 39.2315 16.3763 39.207 16.3479 39.1745C16.3195 39.142 16.3004 39.1026 16.2925 39.0604L14.0535 27.3177C14.0465 27.2809 14.0482 27.243 14.0584 27.207C14.0685 27.1709 14.0869 27.1376 14.1121 27.1096C14.1377 27.0818 14.1695 27.0602 14.205 27.0466C14.2405 27.033 14.2788 27.0278 14.3167 27.0314L28.6105 28.3125C28.6585 28.317 28.7042 28.3351 28.7419 28.3648C28.7795 28.3945 28.8076 28.4344 28.8226 28.4796C28.8376 28.5248 28.8388 28.5733 28.8262 28.6192C28.8136 28.6652 28.7877 28.7064 28.7517 28.738L25.7673 31.3378L25.6087 31.1563L25.7388 30.9498C27.6139 32.0815 29.7709 32.6771 31.9691 32.6705C34.8568 32.6705 37.5477 31.6381 39.078 29.8392C40.0405 28.7114 40.7827 28.081 41.252 26.5903C41.4669 25.8894 41.5738 25.1607 41.5692 24.4285C41.5692 24.1829 41.5581 23.9358 41.5359 23.6902C41.3075 21.1874 40.1563 19.9908 39.4744 19.1007L39.8661 18.8051L39.8629 18.8098Z" fill="url(#paint0_linear_4_1805)"></path>
<defs>
    <linearGradient gradientUnits="userSpaceOnUse" id="paint0_linear_4_1805" x1="38.1422" x2="17.9874" y1="39.078" y2="22.3704">
        <stop stop-color="#FF6800"></stop>
        <stop offset="1" stop-color="#FF6000"></stop>
    </linearGradient>
</defs>
</svg>